<svg width="119" height="37" viewBox="0 0 119 37" fill="none" xmlns="http://www.w3.org/2000/svg">
<path d="M70.4326 12.198V8.20312H51.0894V12.4082H63.0738L51.0894 24.3926V28.3874H70.6429V23.972H58.4482L70.4326 12.198Z" fill="white"/>
<path d="M73.166 12.8265V28.3852H78.6326V12.8265L75.8994 13.2471L73.166 12.8265Z" fill="white"/>
<path d="M95.0326 13.0404L90.6173 23.553L86.4123 13.0404H80.3149L87.4636 28.3888H93.7711L100.92 13.0404H95.0326Z" fill="white"/>
<path d="M112.062 24.8158C110.801 24.8158 109.749 24.6056 108.908 24.1851C108.067 23.7646 107.437 23.344 107.016 22.7133C107.016 22.503 106.806 22.503 106.806 22.2928H119C119 20.4005 118.58 18.5083 117.949 17.2468C117.318 15.9853 116.267 14.7237 115.006 13.8827C113.744 13.0417 112.062 12.6212 110.17 12.6212C108.488 12.6212 106.806 13.0417 105.334 13.6725C103.862 14.3032 102.811 15.3544 101.97 16.6159C101.129 17.8774 100.708 19.139 100.708 20.821C100.708 22.503 101.129 23.9748 101.97 25.026C102.811 26.2875 104.073 27.1286 105.334 27.9696C106.806 28.6003 108.488 29.0209 110.38 29.0209C111.852 29.0209 113.324 28.8106 114.795 28.3901C116.267 27.9696 117.318 27.5491 118.37 26.7081V23.1338C117.529 23.7646 116.477 24.185 115.216 24.3953C114.375 24.6055 113.324 24.8158 112.062 24.8158ZM108.278 16.8263C108.908 16.4058 109.539 16.4057 110.38 16.4057C111.221 16.4057 111.852 16.616 112.272 16.8263C112.903 17.0365 113.324 17.457 113.534 18.0877C113.744 18.298 113.744 18.7185 113.954 18.9288H106.806C106.806 18.7185 107.016 18.5083 107.016 18.298C107.226 17.6673 107.647 17.2468 108.278 16.8263Z" fill="white"/>
<path d="M31.9565 18.0809V32.1678H10.3006L13.4544 29.014L10.7211 26.0704L4.62375 32.1678L3.99302 32.7985L0.628906 36.1626H35.9514V14.0862L31.9565 18.0809Z" fill="#70E0B4"/>
<path d="M35.7429 0H0V22.7072L3.78451 18.7124V3.99471H26.0713L22.7072 7.35882L25.6508 10.3023L31.7481 3.99471L35.7429 0Z" fill="white"/>
</svg>
